<?xml version="1.0" standalone="no"?>
<!DOCTYPE svg PUBLIC "-//W3C//DTD SVG 20010904//EN"
 "http://www.w3.org/TR/2001/REC-SVG-20010904/DTD/svg10.dtd">
<svg version="1.0" xmlns="http://www.w3.org/2000/svg"
 width="700.000000pt" height="700.000000pt" viewBox="0 0 700.000000 700.000000"
 preserveAspectRatio="xMidYMid meet">
<metadata>
Created by potrace 1.11, written by Peter Selinger 2001-2013
</metadata>
<g transform="translate(0.000000,700.000000) scale(0.100000,-0.100000)"
fill="#000000" stroke="none">
<path d="M2961 5702 c-143 -172 -309 -387 -303 -393 4 -4 50 -29 102 -55 228
-114 444 -241 650 -382 69 -47 127 -88 130 -92 3 -3 34 -26 70 -52 36 -25 75
-54 87 -64 25 -22 39 -34 113 -94 173 -140 451 -408 609 -585 317 -356 593
-761 792 -1163 46 -94 87 -170 91 -169 4 1 102 78 218 171 197 157 211 170
205 194 -24 95 -367 729 -441 817 -5 6 -22 30 -38 55 -74 116 -224 310 -364
473 -63 72 -82 100 -74 110 6 6 73 75 149 153 l138 141 75 -38 c41 -21 104
-48 139 -60 l63 -21 99 102 c106 108 146 173 173 276 33 129 21 230 -43 364
-84 176 -278 286 -481 273 -132 -9 -223 -57 -358 -188 l-110 -106 23 -63 c13
-35 40 -97 60 -137 l36 -73 -148 -148 c-81 -81 -150 -148 -153 -148 -3 0 -17
10 -31 23 -258 223 -379 317 -601 466 -207 139 -406 252 -628 358 -96 46 -183
88 -192 93 -14 8 -25 0 -57 -38z"/>
<path d="M2211 4755 c-79 -100 -148 -189 -153 -198 -7 -14 8 -25 91 -66 324
-163 706 -420 1021 -689 129 -110 441 -416 567 -557 67 -74 262 -316 308 -381
11 -15 30 -40 43 -55 12 -15 22 -31 22 -37 0 -6 3 -12 8 -14 8 -3 152 -213
152 -222 0 -2 17 -31 38 -63 39 -59 66 -106 154 -268 27 -49 56 -104 66 -122
9 -17 21 -32 25 -33 7 -1 237 175 281 215 6 6 32 26 58 45 26 19 48 38 48 42
1 22 -185 391 -247 491 -14 22 -36 59 -50 84 -82 148 -361 534 -468 649 -5 6
-39 44 -75 85 -81 90 -308 318 -421 421 -219 199 -418 349 -724 544 -119 75
-427 237 -559 294 l-41 17 -144 -182z"/>
<path d="M1744 4148 c-43 -46 -294 -355 -294 -362 0 -3 30 -22 68 -42 247
-136 606 -370 749 -488 10 -9 34 -28 54 -43 81 -64 147 -120 283 -242 64 -57
322 -315 391 -392 207 -226 495 -611 613 -819 11 -19 46 -80 77 -135 32 -55
69 -119 82 -143 l24 -42 47 37 c26 21 58 48 72 59 25 21 272 225 278 229 1 1
-33 72 -76 156 -253 496 -594 951 -977 1305 -27 25 -79 73 -116 107 -227 212
-456 388 -759 583 -97 62 -466 264 -483 264 -2 0 -17 -15 -33 -32z"/>
<path d="M1263 3353 c3 -5 7 -35 11 -68 3 -33 8 -71 10 -85 4 -22 9 -61 22
-170 1 -14 6 -45 9 -70 9 -60 12 -89 25 -190 15 -117 20 -161 25 -190 4 -24
10 -74 21 -170 3 -25 7 -56 9 -70 2 -14 11 -83 20 -155 9 -71 18 -141 20 -155
7 -44 22 -163 30 -230 3 -25 7 -58 9 -75 3 -16 10 -73 17 -125 6 -52 13 -96
14 -98 3 -3 91 -16 180 -27 57 -6 104 -13 156 -20 20 -3 51 -7 70 -9 19 -2 57
-7 84 -10 57 -8 55 -8 275 -36 91 -11 176 -23 190 -25 14 -2 50 -7 80 -10 30
-3 66 -8 80 -10 14 -2 48 -7 75 -10 28 -3 61 -7 75 -10 14 -2 48 -7 75 -10 58
-6 129 -15 165 -20 14 -2 63 -9 110 -15 47 -5 99 -12 115 -14 113 -15 135 -17
135 -12 0 22 -226 393 -331 543 -210 299 -505 628 -794 884 -27 24 -55 49 -63
56 -35 33 -257 206 -332 260 -155 110 -253 172 -436 278 -120 68 -163 88 -151
68z"/>
</g>
</svg>
